<svg version="1.1" id="Layer_1" xmlns="http://www.w3.org/2000/svg" xmlns:xlink="http://www.w3.org/1999/xlink" x="0px" y="0px"
	 width="100%" viewBox="0 0 1024 1024" enable-background="new 0 0 1024 1024" xml:space="preserve">
<path fill="#000000" opacity="1.000000" stroke="none" 
	d="
M596.584290,542.330261 
	C594.775208,535.645752 596.334229,529.127808 595.295410,522.370605 
	C591.515137,525.559631 588.084351,528.627869 584.475952,531.470642 
	C553.204224,556.107605 498.386353,549.312866 477.460510,506.659271 
	C458.957916,468.945038 467.416840,418.090118 497.763428,389.072418 
	C510.480927,376.911774 525.992981,370.850128 543.333313,368.557129 
	C560.132629,366.335693 576.084045,368.834534 591.576355,375.315918 
	C592.619690,375.752441 593.750793,376.221893 594.956543,375.605988 
	C596.065674,374.133881 595.624634,372.407959 595.628357,370.792419 
	C595.663696,355.467712 595.542053,340.141876 595.691711,324.818542 
	C595.772522,316.551605 592.201355,310.836884 584.792419,307.387756 
	C584.490906,307.247345 584.170471,307.141815 583.883118,306.977631 
	C582.032288,305.920135 579.712891,305.188751 579.799622,302.481079 
	C579.890198,299.650330 582.343201,299.259308 584.340027,298.607208 
	C595.558655,294.943481 606.795837,291.336334 618.031494,287.724762 
	C622.619690,286.249878 627.228027,284.837494 631.811951,283.349579 
	C635.455566,282.166809 637.260254,283.481140 637.323669,287.269836 
	C637.351562,288.935181 637.348511,290.601135 637.348572,292.266815 
	C637.349854,360.062347 637.358948,427.857849 637.331787,495.653381 
	C637.329773,500.676392 638.074829,505.570862 639.304565,510.407257 
	C640.932495,516.809570 644.436279,521.917725 650.056702,525.467285 
	C652.274475,526.867920 654.345703,528.486389 653.711304,531.371338 
	C653.070496,534.285217 650.323608,534.808044 647.857422,535.253052 
	C633.161560,537.904541 618.460327,540.527039 603.746765,543.078125 
	C601.481934,543.470825 599.119934,543.825073 596.584290,542.330261 
M595.643372,414.804199 
	C595.291260,412.003632 595.028259,409.188477 594.571838,406.404999 
	C592.524231,393.918823 585.488525,385.487396 573.533447,381.458008 
	C553.141602,374.585052 533.633972,382.096375 523.296509,401.055542 
	C513.547241,418.935791 510.574341,438.248871 512.125854,458.435638 
	C513.186340,472.233856 516.464417,485.347839 523.499207,497.324615 
	C538.977112,523.675659 566.176758,529.053589 590.647339,510.817139 
	C594.132507,508.219849 595.766846,505.253998 595.738708,500.730774 
	C595.562317,472.403473 595.648193,444.074524 595.643372,414.804199 
z"/>
<path fill="#000000" opacity="1.000000" stroke="none" 
	d="
M454.770447,531.560730 
	C442.955994,549.309143 417.531586,548.513794 406.283508,538.722656 
	C400.419250,533.618042 398.248627,526.694031 395.913300,519.417786 
	C393.290161,520.872559 392.369232,523.492371 390.642517,525.349854 
	C378.813751,538.075012 364.134033,544.433044 346.885986,545.376831 
	C330.476471,546.274780 315.865875,542.341858 304.150146,530.173523 
	C287.388184,512.764038 289.883606,484.296234 309.374634,469.954987 
	C321.868988,460.761780 336.469025,456.752838 351.088501,452.697418 
	C363.737793,449.188538 376.303772,445.379639 388.950043,441.859528 
	C392.367096,440.908386 393.788788,439.234100 393.726685,435.531311 
	C393.534027,424.043640 393.322784,412.537842 390.481964,401.362854 
	C386.429565,385.422028 371.080566,377.286011 355.951172,382.655273 
	C348.330872,385.359650 343.495239,392.034180 343.362183,400.125702 
	C343.301910,403.790863 343.382507,407.458191 343.339935,411.123840 
	C343.216217,421.773163 335.089539,429.977661 324.352905,430.327362 
	C314.141724,430.659943 305.557281,422.694489 304.589233,412.424438 
	C303.393951,399.743195 310.076935,391.094086 319.266663,384.106567 
	C332.077759,374.365509 347.092804,370.130402 362.910339,368.721558 
	C375.711670,367.581390 388.432159,367.864563 400.975250,371.450623 
	C420.443024,377.016479 430.963379,390.210632 434.309692,409.674438 
	C436.005035,419.535400 436.327362,429.505981 436.297821,439.504211 
	C436.234375,461.000763 436.329285,482.497711 436.296387,503.994415 
	C436.290955,507.552826 436.819092,510.966553 438.286072,514.187561 
	C440.321228,518.656128 444.846161,521.283447 449.139832,520.415588 
	C451.715973,519.894836 454.726135,518.214905 456.632996,520.560791 
	C458.856720,523.296448 457.202820,526.588013 455.962830,529.517456 
	C455.704987,530.126526 455.313141,530.678894 454.770447,531.560730 
M393.649231,462.637146 
	C393.374237,459.886749 394.274841,457.021210 392.987701,454.377167 
	C381.299072,454.950684 352.777649,467.085419 344.830139,474.838379 
	C338.177551,481.328156 335.710388,489.134827 336.808624,498.395844 
	C339.148590,518.127319 357.595856,525.717773 373.802338,521.538879 
	C383.771118,518.968445 392.130432,510.418976 392.681030,502.518829 
	C393.584503,489.556274 393.797058,476.584991 393.649231,462.637146 
z"/>
<path fill="#000000" opacity="1.000000" stroke="none" 
	d="
M280.377869,303.632172 
	C279.949646,304.347076 279.703491,304.889343 279.295807,305.072815 
	C262.924744,312.440674 259.359558,326.607971 259.354431,342.636383 
	C259.338898,391.297424 259.355133,439.958496 259.346283,488.619537 
	C259.340546,520.207825 234.230545,548.881104 202.838104,553.346741 
	C189.186264,555.288818 175.614532,555.475708 162.379639,551.232239 
	C151.774124,547.831787 142.362427,542.674683 139.233444,530.683899 
	C136.858429,521.582397 141.478943,511.450226 149.730637,507.548553 
	C157.887665,503.691650 166.886261,506.542084 172.768280,514.846924 
	C174.613968,517.452759 175.882385,520.339722 176.940048,523.335693 
	C177.825516,525.843994 178.636047,528.388855 179.695190,530.823853 
	C183.740723,540.124573 189.756363,543.953491 197.738831,542.437500 
	C206.996185,540.679260 211.240143,535.235229 211.634140,524.583069 
	C211.683380,523.251648 211.651337,521.916992 211.651337,520.583862 
	C211.651382,459.090973 211.530106,397.597626 211.740005,336.105469 
	C211.789032,321.741119 206.248459,311.773407 192.512711,306.799866 
	C191.423508,306.405457 190.365936,305.880188 189.366470,305.291992 
	C187.961044,304.464874 187.195877,303.222076 187.532974,301.531189 
	C187.857880,299.901428 189.201157,299.583588 190.553497,299.409790 
	C191.705414,299.261749 192.876114,299.145813 194.034210,299.176605 
	C219.854568,299.863495 245.673492,299.705231 271.497711,299.363647 
	C274.641754,299.322052 279.756439,296.926758 280.377869,303.632172 
z"/>
<path fill="#000000" opacity="1.000000" stroke="none" 
	d="
M774.470703,454.549072 
	C758.598389,439.579742 755.058105,421.515076 761.157837,401.732880 
	C767.475891,381.242737 783.514648,371.889771 803.594666,368.726562 
	C826.265930,365.155182 847.846130,369.781372 868.879333,378.244232 
	C874.612976,380.551178 873.438171,385.538696 874.152527,389.578674 
	C875.564941,397.566559 876.217834,405.689178 877.167725,413.758087 
	C877.449707,416.153381 877.612671,418.750000 874.735291,419.581848 
	C872.155640,420.327637 870.811279,418.209808 869.782227,416.286835 
	C863.837280,405.177979 856.940247,394.852692 846.470337,387.404968 
	C834.911621,379.182617 822.137634,376.890533 808.520203,380.371185 
	C799.699280,382.625885 793.925659,388.591522 792.547668,397.675262 
	C791.110657,407.147705 793.419983,415.563995 801.994019,421.261871 
	C811.243713,427.408722 821.742004,430.787079 831.945435,434.816956 
	C841.227112,438.482758 850.617981,441.862305 859.384277,446.745880 
	C882.996643,459.899902 888.312134,477.592072 886.045410,499.051147 
	C883.701904,521.236572 868.781250,536.984314 846.260742,542.366821 
	C817.141418,549.326294 789.538330,544.039185 762.963806,531.308777 
	C760.439270,530.099426 758.914856,528.239197 758.831238,525.560303 
	C758.473572,514.098877 756.336121,502.750763 756.680603,491.251831 
	C756.742432,489.187225 756.084900,486.640167 758.995667,485.865662 
	C761.819031,485.114349 763.388611,486.955597 764.490601,489.126831 
	C768.808044,497.633270 773.822266,505.678284 780.339600,512.677246 
	C794.525330,527.911194 811.479248,535.524109 832.672607,531.682251 
	C844.100769,529.610535 851.151794,523.390991 853.336792,512.861633 
	C855.487427,502.497833 851.435913,493.603271 841.744202,487.404419 
	C830.972412,480.514740 818.656799,477.197205 806.979553,472.408234 
	C795.569519,467.728851 784.106934,463.180267 774.470703,454.549072 
z"/>
<path fill="#000000" opacity="1.000000" stroke="none" 
	d="
M727.346375,424.000122 
	C727.347229,452.809753 727.428406,481.119690 727.307800,509.428802 
	C727.260864,520.448242 731.106567,528.851501 741.685852,533.368835 
	C744.090576,534.395569 746.401428,535.900574 745.855286,538.837097 
	C745.229614,542.201660 742.201233,542.250610 739.485535,542.252747 
	C717.170898,542.270264 694.856323,542.259155 672.541687,542.272400 
	C670.091492,542.273804 667.677490,542.044067 666.920410,539.245117 
	C666.224915,536.673584 668.054688,535.075378 669.995850,534.094727 
	C682.666992,527.693237 685.603333,516.348083 685.622559,503.553680 
	C685.666809,474.078461 685.645569,444.603180 685.630798,415.127899 
	C685.625977,405.593201 682.503418,397.859497 673.174744,393.699066 
	C671.207458,392.821716 669.023132,391.808411 669.159607,389.161499 
	C669.296265,386.511780 671.566162,385.833099 673.617859,385.077423 
	C689.220703,379.330811 704.815857,373.563141 720.429321,367.845490 
	C725.650696,365.933380 727.314453,367.167450 727.329529,373.042175 
	C727.372742,389.861389 727.345520,406.680786 727.346375,424.000122 
z"/>
<path fill="#000000" opacity="1.000000" stroke="none" 
	d="
M682.729370,308.992920 
	C688.565796,299.830475 696.719421,295.551819 707.045898,297.053314 
	C718.416199,298.706635 725.325623,305.656799 727.458313,316.109955 
	C730.089355,329.005737 722.412476,340.801392 709.354370,343.927063 
	C697.236328,346.827759 684.304565,339.208160 680.701233,327.180023 
	C678.826416,320.921814 679.526733,315.029785 682.729370,308.992920 
z"/>
<path fill="#000000" opacity="1.000000" stroke="none" 
	d="
M131.348236,682.909790 
	C131.478912,686.717224 131.644012,689.876343 126.644203,689.393188 
	C124.013786,689.138916 122.676064,688.335815 122.684769,685.534973 
	C122.731316,670.557434 122.697868,655.579651 122.719482,640.601990 
	C122.721916,638.915771 122.802055,636.919983 125.047226,636.871399 
	C128.363403,636.799622 132.087585,635.315002 134.545776,639.188110 
	C138.912552,646.068298 143.359848,652.897583 147.797974,659.732239 
	C150.776596,664.319336 153.797516,668.878967 157.661026,674.763000 
	C157.661026,662.636597 157.717087,651.922363 157.624908,641.209351 
	C157.599197,638.218201 158.308777,636.609070 161.767502,636.594543 
	C165.306534,636.579712 166.386719,637.996887 166.361343,641.354248 
	C166.256973,655.166321 166.382294,668.980225 166.270340,682.792175 
	C166.252121,685.039795 167.549057,688.361206 164.041107,689.079163 
	C160.486542,689.806702 156.998138,689.930908 154.516769,685.856934 
	C148.376068,675.774963 141.835480,665.936401 135.443420,656.007874 
	C134.461197,654.482178 133.414490,652.997986 131.348434,651.573181 
	C131.348434,661.856201 131.348434,672.139221 131.348236,682.909790 
z"/>
<path fill="#000000" opacity="1.000000" stroke="none" 
	d="
M374.348511,673.997803 
	C374.118286,680.795227 375.126923,687.183655 373.158478,693.356506 
	C371.033142,700.021240 366.289917,704.056274 359.548401,705.084167 
	C352.387390,706.176086 345.443909,705.361755 340.746521,698.781189 
	C339.605133,697.182129 337.372589,694.986084 339.902985,693.211914 
	C342.038788,691.714478 344.674713,690.277893 347.243530,693.678345 
	C350.410522,697.870667 355.149048,698.768982 359.748627,696.886169 
	C364.153198,695.083069 365.734680,692.040100 365.390869,685.182556 
	C360.725342,688.095947 355.771606,689.072632 350.683350,688.203247 
	C345.410278,687.302368 341.792114,683.899231 339.240326,679.336609 
	C334.739716,671.289490 335.961670,660.627930 342.005280,654.804077 
	C347.770416,649.248596 355.953888,648.883179 364.846466,653.942627 
	C366.139526,649.908752 369.423553,650.163574 372.461578,650.950623 
	C375.371307,651.704529 374.236053,654.540894 374.288696,656.509521 
	C374.440002,662.169006 374.346100,667.834961 374.348511,673.997803 
M348.719635,660.229736 
	C346.868408,662.070740 346.060791,664.462280 345.555664,666.891907 
	C344.179565,673.510864 348.045990,679.909668 353.757141,680.643005 
	C358.501556,681.252136 362.304718,679.776550 364.559540,675.346436 
	C366.907990,670.732483 365.855438,663.808472 362.401855,660.470520 
	C358.870209,657.057190 354.448486,656.803162 348.719635,660.229736 
z"/>
<path fill="#000000" opacity="1.000000" stroke="none" 
	d="
M276.283173,649.997803 
	C286.900940,650.983459 291.198029,655.562561 291.328735,665.730347 
	C291.412170,672.222290 291.260406,678.717468 291.356049,685.209106 
	C291.399323,688.144226 290.337738,689.408081 287.269409,689.368164 
	C284.220428,689.328369 282.598755,688.439392 282.658722,685.088257 
	C282.771881,678.763855 282.710297,672.435242 282.645874,666.109131 
	C282.594208,661.033386 280.108490,657.486633 276.239105,657.498779 
	C271.591156,657.513367 269.675659,660.616882 268.928162,664.845947 
	C267.815674,671.139832 268.610596,677.468567 268.388977,683.776611 
	C268.286377,686.696777 268.643982,689.467590 264.195953,689.378174 
	C259.767517,689.289185 260.118622,686.375366 260.084045,683.553955 
	C260.008545,677.394958 260.149475,671.230042 259.932404,665.077026 
	C259.751343,659.945129 257.369385,657.424194 253.272781,657.417480 
	C249.351654,657.411072 246.426422,660.705200 246.331909,665.572693 
	C246.209106,671.897095 246.208267,678.226379 246.298203,684.551514 
	C246.344971,687.838196 245.213196,689.396423 241.657669,689.395935 
	C238.058029,689.395508 237.624329,687.450623 237.640610,684.615906 
	C237.697006,674.793213 237.631729,664.969849 237.689789,655.147217 
	C237.699860,653.440430 237.163086,651.115601 239.844635,650.855774 
	C242.200989,650.627502 245.102478,649.660706 245.626617,653.565735 
	C253.696793,648.327454 259.159668,648.756287 266.171143,655.238586 
	C268.967957,652.828430 271.841797,650.263977 276.283173,649.997803 
z"/>
<path fill="#000000" opacity="1.000000" stroke="none" 
	d="
M773.588867,673.811279 
	C773.874939,674.573181 774.048950,675.040894 774.566956,676.433228 
	C776.758301,669.341492 778.656250,662.951538 780.726257,656.617798 
	C781.601318,653.940247 781.643188,650.644897 786.034485,650.585999 
	C790.324646,650.528442 790.684204,653.513367 791.580872,656.329895 
	C793.593384,662.651672 795.605896,668.973450 798.104675,676.822876 
	C800.232727,669.182251 801.998657,662.841492 803.764587,656.500732 
	C805.444275,650.469727 806.321289,649.959595 812.622559,651.390808 
	C813.745789,653.232483 812.549988,654.963257 812.077576,656.594360 
	C809.396851,665.849792 806.481873,675.037109 803.758850,684.280640 
	C802.916382,687.140625 802.202881,689.430176 798.324036,689.460754 
	C794.371460,689.491882 793.700256,686.940063 792.835938,684.241516 
	C790.709900,677.603699 788.632629,670.950195 786.081604,662.863403 
	C783.573303,670.873901 781.446167,677.560242 779.394836,684.269775 
	C778.547668,687.040466 777.938599,689.495789 773.979736,689.452820 
	C770.165222,689.411438 769.281128,687.234985 768.424988,684.360657 
	C765.209839,673.565430 761.908569,662.795715 758.658630,652.079041 
	C764.980103,649.342468 766.859192,650.119934 768.472107,655.777283 
	C770.156616,661.685913 771.809814,667.603516 773.588867,673.811279 
z"/>
<path fill="#000000" opacity="1.000000" stroke="none" 
	d="
M858.654236,672.997375 
	C858.655396,662.168030 858.727234,651.837219 858.619934,641.508240 
	C858.586914,638.334717 859.251953,636.583252 862.989746,636.580933 
	C866.724121,636.578613 867.490540,638.323975 867.375671,641.502991 
	C867.232788,645.456604 867.341492,649.419189 867.341492,654.114319 
	C872.663879,650.702698 877.659058,648.886414 883.358276,650.651611 
	C887.139893,651.822876 890.331055,653.713196 892.664429,656.970276 
	C898.229919,664.739014 897.725647,677.520020 891.557678,684.439331 
	C885.702332,691.007874 876.951904,691.789978 867.888794,686.447571 
	C866.748047,690.173584 863.748352,689.546448 861.028259,689.170471 
	C857.751709,688.717529 858.799500,685.943542 858.708862,683.991272 
	C858.546692,680.499756 858.658630,676.995483 858.654236,672.997375 
M869.359253,677.976257 
	C872.317627,681.575989 875.859009,683.725464 880.639038,681.970703 
	C885.705627,680.110657 887.409180,675.880127 887.598267,670.956848 
	C887.798035,665.757935 886.799744,660.958252 881.425293,658.462463 
	C876.942322,656.380493 871.812500,657.839233 869.320496,662.092102 
	C866.420349,667.041382 866.596558,672.185486 869.359253,677.976257 
z"/>
<path fill="#000000" opacity="1.000000" stroke="none" 
	d="
M817.709229,660.107544 
	C823.601990,651.179749 830.259583,648.413635 839.503845,650.752441 
	C847.188660,652.696716 853.078369,661.407593 852.369629,669.341675 
	C852.040955,673.022156 849.577026,672.995178 847.059204,673.014771 
	C839.778076,673.071411 832.496155,673.034729 824.833923,673.034729 
	C825.484619,677.990173 827.820068,680.578918 831.728760,682.017029 
	C835.462524,683.390808 839.029175,682.669922 841.243774,679.711060 
	C844.302673,675.623962 847.264343,676.659180 850.668091,678.569641 
	C849.493164,685.899475 841.011047,691.329834 832.955933,689.993286 
	C818.770264,687.639465 812.211731,675.058838 817.709229,660.107544 
M831.760986,665.919373 
	C835.484680,665.661804 839.300232,666.491943 842.981567,665.275818 
	C841.843628,659.946289 838.957214,657.432678 834.182861,657.370605 
	C829.351868,657.307800 825.972656,660.341431 824.897278,665.918579 
	C826.920776,665.918579 828.897400,665.918579 831.760986,665.919373 
z"/>
<path fill="#000000" opacity="1.000000" stroke="none" 
	d="
M736.829468,671.510498 
	C732.485718,674.002380 728.087524,672.732239 723.822632,672.940552 
	C719.834961,673.135254 715.834167,673.050720 711.839905,673.129211 
	C711.369690,673.138428 710.904480,673.401733 710.235229,673.610046 
	C710.094177,677.938110 712.651428,680.231262 716.202881,681.781982 
	C719.944641,683.415771 723.814026,683.189575 726.211731,679.941467 
	C729.358643,675.678406 732.351318,676.622803 735.883789,678.679932 
	C734.135010,686.435730 725.678223,691.421570 717.325745,689.819519 
	C706.213623,687.688171 699.139343,677.981567 700.930908,667.324280 
	C702.790649,656.261169 711.172791,648.828918 720.524048,649.951355 
	C732.149658,651.346802 738.118164,658.987244 736.829468,671.510498 
M710.586121,662.807129 
	C710.313049,663.881836 709.495178,665.491028 711.232178,665.632202 
	C716.919739,666.094543 722.635681,666.240723 728.621094,665.506897 
	C727.668884,660.524963 724.960266,658.293823 721.127197,657.538147 
	C716.743042,656.673828 713.359436,658.539612 710.586121,662.807129 
z"/>
<path fill="#000000" opacity="1.000000" stroke="none" 
	d="
M307.562378,651.081238 
	C310.392029,650.593994 312.884094,649.817627 315.304169,649.999512 
	C325.268524,650.748596 330.163330,656.159424 330.286255,666.260193 
	C330.359070,672.246155 330.341949,678.234314 330.279724,684.220581 
	C330.230408,688.968506 327.247772,691.242798 323.325531,688.814636 
	C320.900269,687.313171 319.626862,688.030457 317.649139,688.837585 
	C312.210297,691.057373 306.844666,690.575684 301.931549,687.404724 
	C294.643799,682.701233 294.997894,673.343262 302.535492,669.040039 
	C307.005005,666.488342 312.016724,666.249451 316.980530,665.798584 
	C318.651154,665.646790 320.966919,666.499695 321.480591,663.877747 
	C321.960144,661.429749 320.521698,659.779846 318.586578,658.542358 
	C314.639160,656.018311 309.190155,656.986938 306.297821,661.242432 
	C304.721039,663.562256 303.076050,663.749878 300.831268,663.112122 
	C297.904785,662.280823 297.149292,660.671082 298.799561,657.942017 
	C300.791290,654.648254 303.664062,652.555298 307.562378,651.081238 
M313.735138,673.307922 
	C309.928223,673.266357 306.095703,673.532043 305.568939,678.370300 
	C305.228455,681.497498 309.345520,683.341370 314.616425,682.733093 
	C315.269989,682.657715 315.967834,682.661377 316.561279,682.421204 
	C319.794281,681.112854 321.932800,678.602905 321.382050,675.207092 
	C320.854248,671.952942 317.637604,673.698853 315.590027,673.295776 
	C315.273621,673.233521 314.932800,673.295532 313.735138,673.307922 
z"/>
<path fill="#000000" opacity="1.000000" stroke="none" 
	d="
M670.066895,638.276489 
	C670.201050,643.325867 670.201050,647.915466 670.201050,653.090698 
	C675.234314,650.903320 679.319397,648.902771 684.269287,650.471436 
	C690.581604,652.471802 693.956116,655.783997 694.233398,662.505798 
	C694.548462,670.143066 694.250488,677.803772 694.350708,685.452515 
	C694.391968,688.597412 692.834167,689.370728 690.014954,689.362427 
	C687.004517,689.353638 685.810730,687.989563 685.810242,685.134949 
	C685.809082,678.648987 685.805115,672.162292 685.708435,665.677307 
	C685.626099,660.155518 683.351562,657.556091 678.643127,657.370911 
	C674.084717,657.191589 670.925781,659.744934 670.567932,664.985229 
	C670.115601,671.608459 670.249207,678.282654 670.375305,684.930176 
	C670.443970,688.551147 668.785278,689.499512 665.499207,689.348999 
	C662.272766,689.201294 661.722473,687.314270 661.723267,684.700195 
	C661.727478,670.397461 661.667053,656.094666 661.707642,641.792114 
	C661.723083,636.347290 663.861877,635.362244 670.066895,638.276489 
z"/>
<path fill="#000000" opacity="1.000000" stroke="none" 
	d="
M210.048203,660.331421 
	C215.534348,674.275085 209.846085,686.581726 196.835602,689.637451 
	C186.575943,692.047119 176.758743,685.517273 174.095917,674.512268 
	C171.609390,664.235840 177.675980,653.345886 187.303467,650.803772 
	C196.741562,648.311646 204.606964,651.509827 210.048203,660.331421 
M189.684280,681.944153 
	C198.158249,683.872498 203.797150,678.860413 203.643295,669.536743 
	C203.539474,663.245789 200.906143,659.330383 195.546127,657.846924 
	C191.027664,656.596313 187.230774,658.135071 184.631088,661.830444 
	C179.979858,668.442139 182.038254,677.284241 189.684280,681.944153 
z"/>
<path fill="#000000" opacity="1.000000" stroke="none" 
	d="
M581.454590,686.514954 
	C571.148926,693.944458 554.916687,688.780396 554.032837,678.906616 
	C557.182312,676.624695 559.919128,675.450500 562.956360,679.754578 
	C565.481445,683.332947 569.537415,683.191833 573.430481,682.106628 
	C575.113403,681.637451 576.411804,680.640320 576.590332,678.676392 
	C576.788330,676.499329 575.647278,675.050964 573.765686,674.496521 
	C570.433655,673.514709 566.974243,672.969666 563.630371,672.022217 
	C555.904419,669.833252 552.334290,663.862732 554.767700,657.486511 
	C555.846680,654.659241 557.906372,652.861389 560.587402,651.643738 
	C567.517090,648.496216 577.605469,650.011963 581.939819,655.027283 
	C583.386292,656.700928 585.675842,658.813293 583.251587,660.995300 
	C581.118958,662.914734 578.489014,663.907104 576.158447,660.423340 
	C573.804810,656.904907 569.918823,656.972534 566.202393,657.469849 
	C564.275635,657.727661 562.704224,658.864807 562.559753,660.995728 
	C562.428711,662.928528 563.792664,664.143005 565.452637,664.599487 
	C568.641907,665.476440 571.915955,666.040710 575.142395,666.788208 
	C585.590576,669.208679 588.584351,678.056030 581.454590,686.514954 
z"/>
<path fill="#000000" opacity="1.000000" stroke="none" 
	d="
M547.350464,659.053955 
	C547.346497,667.710205 547.402161,675.876221 547.291443,684.039978 
	C547.266846,685.853271 548.236328,688.440002 545.486328,689.108704 
	C542.923279,689.731995 540.170105,689.901917 539.069580,686.361023 
	C533.917419,690.899170 528.411682,691.047363 522.697876,688.252686 
	C517.001892,685.466736 515.467712,680.470337 515.566772,674.545959 
	C515.675476,668.049622 515.638306,661.547180 515.478088,655.051941 
	C515.410156,652.299988 515.844666,650.621765 519.169739,650.606689 
	C522.235168,650.592834 523.959778,651.522888 523.973572,654.770386 
	C523.999023,660.768494 524.026489,666.766724 524.087646,672.764526 
	C524.158142,679.681702 526.233643,682.516602 531.218140,682.588257 
	C536.043335,682.657593 538.732117,679.079651 538.799438,672.412842 
	C538.853333,667.080872 538.873840,661.748230 538.862122,656.416016 
	C538.854919,653.164795 539.100830,650.499390 543.590210,650.601196 
	C548.305847,650.708130 547.138062,653.942139 547.340271,656.563904 
	C547.391418,657.226562 547.349365,657.896362 547.350464,659.053955 
z"/>
<path fill="#000000" opacity="1.000000" stroke="none" 
	d="
M428.590759,686.801758 
	C419.620667,691.484131 410.066254,690.706665 404.203430,685.058838 
	C398.357727,679.427551 396.827148,668.088928 400.784454,659.953674 
	C404.037659,653.265869 409.742493,650.112854 416.797363,649.874023 
	C423.448364,649.648926 429.186646,652.158752 432.746368,658.232422 
	C433.911987,660.221252 435.429474,662.484619 432.187622,664.059265 
	C429.676331,665.279114 427.365875,666.165955 425.695068,662.485229 
	C424.011658,658.776611 420.442169,657.303589 416.592896,657.748840 
	C412.350311,658.239563 409.160553,660.532410 408.221741,665.099121 
	C407.988586,666.233398 407.551086,667.337952 407.425964,668.480103 
	C406.737335,674.765442 409.623718,679.982239 414.695038,681.755005 
	C419.893341,683.572083 422.912445,682.056335 427.266693,675.259766 
	C429.719116,675.480591 433.258026,675.299500 433.851227,677.999878 
	C434.648987,681.631470 431.635254,684.310303 428.590759,686.801758 
z"/>
<path fill="#000000" opacity="1.000000" stroke="none" 
	d="
M497.653625,669.645935 
	C497.659332,659.862183 497.765594,650.537109 497.613708,641.216125 
	C497.556946,637.731934 498.860504,636.580750 502.296021,636.593201 
	C505.819763,636.605957 506.393524,638.340149 506.370941,641.273560 
	C506.286316,652.261353 506.494537,663.253113 506.284912,674.237488 
	C506.117981,682.984802 499.890778,689.132080 490.730286,690.162170 
	C482.496277,691.088074 474.321198,685.885010 472.232452,678.165161 
	C471.632660,675.948303 470.275513,672.816467 473.767517,671.945129 
	C476.602539,671.237671 479.956238,670.535645 480.783661,675.515076 
	C481.438965,679.458679 484.515686,681.658508 488.778290,681.647827 
	C493.039642,681.637146 495.489197,679.363220 496.851624,675.493896 
	C497.476318,673.719727 497.682220,671.945984 497.653625,669.645935 
z"/>
<path fill="#000000" opacity="1.000000" stroke="none" 
	d="
M598.888428,641.720703 
	C602.583069,641.645020 603.256348,643.834045 603.139282,646.365051 
	C602.989685,649.597473 604.309753,650.970764 607.541504,650.695251 
	C609.869141,650.496826 611.342468,651.311646 611.326172,654.034546 
	C611.311157,656.540833 610.751953,658.485107 607.801697,658.240234 
	C603.765320,657.905273 603.072266,660.074707 603.272461,663.445251 
	C603.469604,666.764771 603.367554,670.105408 603.313904,673.435486 
	C603.248108,677.517639 602.741760,681.621643 608.823181,681.970886 
	C611.067078,682.099792 610.992188,684.630432 610.945862,686.437317 
	C610.893921,688.468262 609.600525,689.152893 607.639465,689.340454 
	C600.768494,689.997803 594.972900,685.016785 594.708191,677.831543 
	C594.524414,672.841675 594.594971,667.838623 594.685730,662.843872 
	C594.733582,660.211182 594.388489,658.225281 591.059082,658.233521 
	C588.683594,658.239380 588.052368,656.462097 588.016174,654.461548 
	C587.980164,652.468018 588.463745,650.674438 590.944092,650.698914 
	C594.204346,650.731079 594.828247,648.780823 594.660522,646.118835 
	C594.490356,643.419556 595.169189,641.457520 598.888428,641.720703 
z"/>
<path fill="#000000" opacity="1.000000" stroke="none" 
	d="
M638.663513,673.871826 
	C638.663818,670.224976 638.612854,667.058167 638.678162,663.893738 
	C638.739197,660.934326 638.918945,658.194031 634.612793,658.072510 
	C632.323059,658.007812 632.695068,655.739502 632.690369,654.125183 
	C632.686035,652.625549 632.643372,650.836792 634.752380,650.796936 
	C638.226196,650.731445 638.866394,648.675354 638.678833,645.820862 
	C638.511475,643.273071 639.341858,641.718994 642.282593,641.674866 
	C645.285461,641.629761 647.312744,642.589233 647.124878,645.839661 
	C646.911865,649.523315 648.375183,651.046021 652.055054,650.733337 
	C654.773438,650.502380 655.331238,652.272888 655.323059,654.589478 
	C655.314209,657.072632 654.251953,658.472900 651.745972,658.245850 
	C647.641724,657.874023 647.118774,660.197815 647.257812,663.495789 
	C647.433167,667.654236 647.397217,671.826965 647.300171,675.989929 
	C647.222778,679.313721 648.268616,681.529602 651.958069,681.690491 
	C654.962952,681.821533 655.277954,683.862000 655.242188,686.234619 
	C655.199463,689.077515 653.320496,689.265991 651.151001,689.334473 
	C643.005676,689.591492 638.695557,684.452271 638.663513,673.871826 
z"/>
<path fill="#000000" opacity="1.000000" stroke="none" 
	d="
M391.349579,666.003784 
	C391.340576,672.826111 391.276459,679.149597 391.347839,685.471497 
	C391.378296,688.169800 390.379547,689.439819 387.548889,689.352600 
	C384.980682,689.273438 382.819366,688.988159 382.822784,685.706787 
	C382.833710,675.224731 382.847870,664.742615 382.841797,654.260559 
	C382.839905,650.959717 384.979279,650.693359 387.552612,650.640747 
	C390.352295,650.583557 391.424957,651.804138 391.353027,654.523254 
	C391.256287,658.181091 391.341949,661.843689 391.349579,666.003784 
z"/>
<path fill="#000000" opacity="1.000000" stroke="none" 
	d="
M440.070892,686.961426 
	C439.318756,683.791138 438.921539,680.914001 442.151245,679.363953 
	C444.979248,678.006775 447.834137,678.331238 449.539429,681.102295 
	C450.994934,683.467529 451.004028,686.329285 448.741364,688.325317 
	C445.706573,691.002319 442.749573,690.380188 440.070892,686.961426 
z"/>
<path fill="#000000" opacity="1.000000" stroke="none" 
	d="
M903.868286,689.245605 
	C901.321350,687.237305 900.025879,685.083191 901.341736,682.157959 
	C902.393311,679.820129 904.163330,678.579468 906.817322,678.710449 
	C909.246094,678.830261 910.774109,680.127563 911.755005,682.246399 
	C912.702637,684.293518 912.296997,686.194641 910.890564,687.785828 
	C909.101074,689.810364 906.889038,690.669434 903.868286,689.245605 
z"/>
<path fill="#000000" opacity="1.000000" stroke="none" 
	d="
M384.069397,635.867920 
	C387.090515,634.068970 389.542419,634.540344 391.440704,636.849731 
	C392.807068,638.511902 392.712524,640.609985 391.608734,642.396118 
	C390.146332,644.762390 387.687134,644.654663 385.415436,644.120483 
	C381.663849,643.238342 381.062531,640.090820 384.069397,635.867920 
z"/>
</svg>
